<svg width="95" height="106" viewBox="0 0 95 106" fill="none" xmlns="http://www.w3.org/2000/svg">
<path d="M27.2461 61.773C26.2053 62.7974 26.1885 64.475 27.2084 65.5202L45.6342 84.0236C46.1284 84.5215 46.8 84.801 47.5 84.8C48.2 84.8007 48.8713 84.5215 49.3658 84.0236L67.7916 65.5202C68.797 64.4899 68.797 62.8414 67.7916 61.8111C66.7714 60.7659 65.1009 60.7488 64.0601 61.773L50.1389 75.7527V2.65C50.1389 1.18655 48.9573 0 47.5 0C46.0427 0 44.8611 1.18655 44.8611 2.65V75.7527L30.9396 61.773C29.914 60.7634 28.2721 60.7634 27.2461 61.773ZM79.1667 37.1H71.25C69.7927 37.1 68.6111 38.2865 68.6111 39.75C68.6111 41.2135 69.7927 42.4 71.25 42.4H79.1667C84.9934 42.4074 89.7148 47.1488 89.7222 53V90.1C89.7148 95.9512 84.9934 100.693 79.1667 100.7H15.8333C10.0066 100.693 5.28519 95.9512 5.27778 90.1V53C5.28519 47.1488 10.0066 42.4074 15.8333 42.4H29.0278C30.4851 42.4 31.6667 41.2135 31.6667 39.75C31.6667 38.2865 30.4851 37.1 29.0278 37.1H15.8333C7.09266 37.1097 0.00966414 44.2225 0 53V90.1C0.00966414 98.8775 7.09266 105.99 15.8333 106H79.1667C87.9073 105.99 94.9903 98.8775 95 90.1V53C94.9903 44.2225 87.9073 37.1097 79.1667 37.1Z" fill="#94998D"/>
</svg>
