<svg width="15" height="25" viewBox="0 0 15 25" fill="none" xmlns="http://www.w3.org/2000/svg">
<path d="M0.390625 0C0.287025 0 0.187668 0.0428012 0.114411 0.118988C0.0411551 0.195175 0 0.298506 0 0.40625V23.9688C0 24.0765 0.0411551 24.1798 0.114411 24.256C0.187668 24.3322 0.287025 24.375 0.390625 24.375H13.6719C13.7755 24.375 13.8748 24.3322 13.9481 24.256C14.0213 24.1798 14.0625 24.0765 14.0625 23.9688V0.40625C14.0625 0.298506 14.0213 0.195175 13.9481 0.118988C13.8748 0.0428012 13.7755 0 13.6719 0H0.390625ZM0.78125 0.8125H13.2812V23.5625H0.78125V0.8125ZM4.99687 1.625C4.89327 1.63049 4.79602 1.67857 4.7265 1.75864C4.65698 1.83871 4.62089 1.94422 4.62617 2.05197C4.63146 2.15971 4.67768 2.26086 4.75467 2.33316C4.83166 2.40546 4.93312 2.443 5.03672 2.4375H9.02578C9.12938 2.4375 9.22874 2.3947 9.30199 2.31851C9.37525 2.24233 9.41641 2.13899 9.41641 2.03125C9.41641 1.92351 9.37525 1.82017 9.30199 1.74399C9.22874 1.6678 9.12938 1.625 9.02578 1.625H5.03672C5.02371 1.62432 5.01067 1.62432 4.99766 1.625H4.99687ZM1.95312 3.25C1.84952 3.25 1.75017 3.2928 1.67691 3.36899C1.60365 3.44517 1.5625 3.54851 1.5625 3.65625V19.9062C1.5625 20.014 1.60365 20.1173 1.67691 20.1935C1.75017 20.2697 1.84952 20.3125 1.95312 20.3125H12.1094C12.213 20.3125 12.3123 20.2697 12.3856 20.1935C12.4588 20.1173 12.5 20.014 12.5 19.9062V3.65625C12.5 3.54851 12.4588 3.44517 12.3856 3.36899C12.3123 3.2928 12.213 3.25 12.1094 3.25H1.95312ZM2.34375 4.0625H11.7188V19.5H2.34375V4.0625ZM7.03125 21.125C6.60469 21.125 6.25 21.4939 6.25 21.9375C6.25 22.3819 6.60469 22.75 7.03125 22.75C7.45781 22.75 7.8125 22.3819 7.8125 21.9375C7.8125 21.4939 7.45781 21.125 7.03125 21.125Z" fill="white"/>
</svg>
