<svg xmlns="http://www.w3.org/2000/svg" viewBox="0 0 300 299.44"><title>video</title><path d="M258,300H42a27.82,27.82,0,0,0-3.34-.77c-18.68-2-33.13-14.75-37.19-33-.68-3-1-6.17-1.47-9.26V43c.82-4.38,1.24-8.89,2.54-13.13C8.16,11.65,24.22.58,44.84.58Q150,.54,255.15.57c1.66,0,3.33,0,5,.15a41.43,41.43,0,0,1,38.09,32c.75,3,1.19,6.17,1.77,9.26V258c-.28,1.28-.67,2.56-.82,3.86a42,42,0,0,1-33.4,36.82C263.21,299.22,260.59,299.56,258,300ZM275.35,76.11H24.84V223.89H275.35ZM25.27,248.64c-4.11,23,10.15,30,32.42,26.09V248.64Zm217,26.92c4.52,0,8.49,0,12.46,0,14.81-.15,23-9.83,20.67-24.49-.15-1-1.38-2.56-2.14-2.57-10.26-.17-20.53-.12-31-.12ZM57.66,51.34V24.78c-6,0-11.84-.27-17.6.08s-9.92,3.54-12.9,8.31c-3.5,5.6-2.62,11.76-2.5,18.17Zm184.69.32c10,0,19.59,0,29.19,0,1.13,0,2.26-.25,3.5-.39,0-4.33.45-8.5-.11-12.53-.93-6.75-6.77-12.87-13.5-13.6-6.2-.67-12.52-.14-19.08-.14Zm-106.84,197v26.5h29v-26.5Zm-24.56.11H82.17v26.35H111Zm106.93-.1H189.16v26.57h28.72ZM164.56,24.88H135.62V51.17h28.94ZM110.89,51.41V24.89H82.35V51.41Zm106.75,0V24.83H189.15v26.6Z" transform="translate(0 -0.56)" style="fill:#fff"/><path d="M204.19,149.37c0,5.33-2.12,8.79-6,11C170.1,176.67,142,193,113.82,209c-8.6,4.9-17.91-.57-17.95-10.42q-.23-48.75,0-97.49c.05-9.55,9.37-15,17.71-10.27C142,107,170.16,123.39,198.4,139.74A10.89,10.89,0,0,1,204.19,149.37Zm-84-27.16V177.8L168.27,150Z" transform="translate(0 -0.56)" style="fill:#fff"/></svg>