<svg xmlns="http://www.w3.org/2000/svg" viewBox="0 0 351.66 250.78"><title>game</title><path d="M114,51c41.53-1.12,126.84.82,127.8.82,48.08.18,87.58,43.55,96.28,91.43,3.84,21.1,5.9,42.53,8.95,63.78,1.44,10,2.65,20.25,4.32,30.23a39.83,39.83,0,0,1,.09,12.62,42.16,42.16,0,0,1-1.17,5.75c-4.86,21-17.85,34.9-37.89,42.09-6.18,2.21-17.06,4-24.29,3.66-21.71-.85-39.32-13.81-49.3-34.65-5.82-12.14-12.11-24.06-18-36.18-1.51-3.14-3.39-4.22-6.88-4.2q-37.93.22-75.89,0c-3.5,0-5.36,1.1-6.86,4.21-6.24,12.87-12.7,25.63-19.1,38.41s-15.88,22.74-29.37,27.84c-6.91,2.61-19.32,4.29-29.08,4.26-22.7.11-44.74-19.23-51.24-42.52a51.06,51.06,0,0,1-1.69-7.7C0,247.76.18,240,.62,236.29c.09-1.58.13-2.8.31-4.09,3.73-26.36,7.37-52.73,11.16-79.08,6.52-45.3,30.65-77.23,73.11-94.56C94.35,54.82,100,52.24,114,51Zm61.65,25c-17,0-34-.09-51,0-41.77.29-78.3,30.26-85.73,71.42-4.2,23.26-6.75,46.81-10,70.24-1.23,8.91-3.08,17.83-3.19,26.76-.2,15.26,11.27,28.05,27,31.65,15.44,3.53,29.25-2.64,36.46-16.69q12.56-24.45,24.59-49.15c3.07-6.29,7.65-9,14.66-9q47.51.24,95,0c7.57,0,12.45,3,15.75,9.85q11.73,24.27,24.12,48.24C271,274,286.54,280.08,302.42,275s26-19.57,23.68-35.5c-4.4-30.33-8.75-60.67-14-90.87C304.78,106,269,76.2,225.65,76,209,75.87,192.31,76,175.65,76Z" transform="translate(-0.23 -50.65)" style="fill:#fff"/><path d="M125.89,126.09c4.81,0,8.8-.13,12.78,0,7.66.32,12.41,5.39,12.24,12.88-.16,7.24-4.91,11.91-12.44,12.1-4,.1-7.93,0-12.58,0,0,4,0,7.6,0,11.2-.09,9-4.63,13.92-12.72,13.87-7.94-.06-12.25-4.83-12.32-13.65,0-3.61,0-7.23,0-11.42-4.47,0-8.42.06-12.37,0-8-.15-12.62-4.66-12.7-12.26-.07-7.82,4.64-12.55,12.8-12.75,3.82-.09,7.64,0,12.28,0,0-4.18,0-8.09,0-12,.12-8.18,4.82-13.07,12.49-13s12.36,4.91,12.54,13.11C126,117.94,125.89,121.73,125.89,126.09Z" transform="translate(-0.23 -50.65)" style="fill:#fff"/><path d="M226.1,138.84c-.08,7.51-5.09,12.36-12.67,12.28s-12.45-5.21-12.34-12.67,5.34-12.45,12.74-12.35S226.18,131.33,226.1,138.84Z" transform="translate(-0.23 -50.65)" style="fill:#fff"/><path d="M276.25,138.82c-.07,7.55-5,12.37-12.62,12.3-7.46-.08-12.53-5.24-12.43-12.64S256.6,126,264,126.09,276.31,131.24,276.25,138.82Z" transform="translate(-0.23 -50.65)" style="fill:#fff"/><path d="M251.16,163.89c-.07,7.59-5,12.36-12.61,12.3-7.48-.07-12.52-5.2-12.42-12.63a12.16,12.16,0,0,1,12.75-12.41C246.27,151.23,251.23,156.38,251.16,163.89Z" transform="translate(-0.23 -50.65)" style="fill:#fff"/><path d="M251.16,113.71c-.06,7.53-5.06,12.44-12.6,12.36s-12.51-5.25-12.42-12.66S231.43,101,238.86,101,251.22,106.15,251.16,113.71Z" transform="translate(-0.23 -50.65)" style="fill:#fff"/></svg>