<svg xmlns="http://www.w3.org/2000/svg" viewBox="0 0 300 299.44"><title>wallpaper</title><path d="M300,42V258c-.28,1.28-.69,2.55-.84,3.85a41.8,41.8,0,0,1-32.91,36.69c-2.72.61-5.5,1-8.25,1.46H42a28.16,28.16,0,0,0-3.33-.78c-18.68-2-33.11-14.73-37.21-32.94C.85,263.55.48,260.76,0,258V42c.48-2.77.85-5.56,1.47-8.3C6,13.5,22.63.6,44.35.58Q150,.52,255.65.57c1.16,0,2.33,0,3.49.07,19.55,1,35.07,14,39.38,33.06C299.14,36.43,299.51,39.23,300,42ZM156.93,147.21c1.3-1.07,2.33-1.88,3.33-2.74q22.85-19.78,45.7-39.58c7.31-6.31,11.71-6.45,19.55-.75q22.22,16.14,44.43,32.32c1.54,1.12,3.13,2.19,5.13,3.58a30.49,30.49,0,0,0,.41-3.18c0-31.15.12-62.3-.05-93.45-.06-11.95-7.49-18.83-19.78-18.83q-105.69,0-211.38,0c-12.49,0-19.7,7-19.73,19.4q-.13,63.47,0,126.93c0,1.32.29,2.65.52,4.65,2.21-2,3.7-3.34,5.15-4.7Q59.91,143,89.6,115.13c8.4-7.88,12.32-8.09,21.75-1.2Zm-55.15-10.57c-25.3,23.71-50.24,47-75.08,70.46a7.26,7.26,0,0,0-2.1,4.71c-.14,15.32-.24,30.65,0,46,.14,8.3,5.12,14.77,12.53,16.81a34.35,34.35,0,0,0,8.9.93q104,.06,207.93,0c2.16,0,4.62.34,6.42-.54a57.43,57.43,0,0,0,11.54-7.14c3.1-2.59,2.57-5.16-1.13-7.84q-55.23-40-110.19-80.37Zm75.13,25.17c32.79,24,65.2,47.64,97.89,71.51a11.1,11.1,0,0,0,.62-2.1c0-19.47.12-38.95-.06-58.42,0-1.6-1.47-3.65-2.85-4.7-8.09-6.12-16.36-12-24.57-18-10.34-7.52-20.7-15-31.29-22.7Z" transform="translate(0 -0.56)" style="fill:#fff"/><path d="M151.71,44.85A28.4,28.4,0,0,1,180,73.59a28.49,28.49,0,0,1-57-.45A28.37,28.37,0,0,1,151.71,44.85Z" transform="translate(0 -0.56)" style="fill:#fff"/></svg>