<svg xmlns="http://www.w3.org/2000/svg" viewBox="0 0 235.28 298.5"><title>music</title><path d="M267,69c-6.08,10.6-11.52,11.92-22.29,5.32q-30-18.4-60-36.87c-1.65-1-3.36-1.94-5.72-3.29v6.06c0,61.19-.2,122.38.14,183.57.09,15.91-5,29.2-16.54,39.72-26.74,24.37-58,37.51-94.58,35.33-7.48-.45-15.09-3.78-22-7.09-7-4.49-13-10.3-13.5-18-.57-2.67,0-5.06.53-8.66,5.33-21.61,20.82-34.67,38.84-45.2,22.25-13,46.07-20.7,72.26-18.85,3.47.24,6.9,1,10.87,1.57v-5.9q0-90.46-.05-180.91c0-5.66.79-10.72,6.19-13.71S171.25,1,176.07,4c27,16.71,54.2,33.19,81.12,50.08,3.85,2.41,7.63,5.38,9.81,10A6.38,6.38,0,0,1,267,69ZM99.36,271.89c19.14-5.43,36.74-13.95,49.87-29.49,2.77-3.28,5.79-8.71,4.9-12.17-1.25-4.86-7.67-5.11-12.46-5.23-15-.35-37.24,5-54,14.65-17.07,9.78-26.36,21.17-28,25.88-1.45,4.69-.51,9.13,3.76,10.35C68.35,277.29,81.29,277.29,99.36,271.89Z" transform="translate(-32.23 -0.6)" style="fill:#fff"/></svg>