<svg xmlns="http://www.w3.org/2000/svg" viewBox="0 0 234.4 234.4"><title>icn-arr</title><path d="M.2,117.4a117.2,117.2,0,1,1,234.4-.1c.1,64.8-52.4,117.1-117.2,117.2h-.6A116.72,116.72,0,0,1,.2,117.6ZM117.3,95.7c-2.3.1-4.1.3-5.9.3H64.9c-7.7,0-11.6,4.1-11.7,11.8v18c0,9,3.7,12.6,12.8,12.7,15.5,0,31,.1,46.5-.1,3.8,0,5,1.2,4.8,4.9-.3,5.3,0,10.7-.1,16-.1,4.5.9,8.4,5.3,10.4s8.3.4,11.7-3c14.4-14.1,28.9-28.1,43.3-42.2,5.1-5,5.1-9.5-.1-14.6C163,95.8,148.5,81.8,134.1,67.7c-3.3-3.2-7-4.7-11.3-2.9s-5.7,5.6-5.6,10.2C117.4,81.7,117.3,88.5,117.3,95.7Z" transform="translate(-0.2 -0.1)" style="fill:#fff"/></svg>