<svg id="e1XuGfBFjEN1" xmlns="http://www.w3.org/2000/svg" xmlns:xlink="http://www.w3.org/1999/xlink" viewBox="0 0 254.76 339.63" shape-rendering="geometricPrecision" text-rendering="geometricPrecision">
<style><![CDATA[
#e1XuGfBFjEN4_to {animation: e1XuGfBFjEN4_to__to 2500ms linear infinite normal forwards}@keyframes e1XuGfBFjEN4_to__to { 0% {transform: translate(-42.86px,-9.14px)} 12% {transform: translate(-42.86px,-0.14px)} 68% {transform: translate(-42.86px,-0.14px)} 80% {transform: translate(-42.86px,26.86px)} 100% {transform: translate(-42.86px,26.86px)}} #e1XuGfBFjEN4 {animation: e1XuGfBFjEN4_c_o 2500ms linear infinite normal forwards}@keyframes e1XuGfBFjEN4_c_o { 0% {opacity: 0} 12% {opacity: 1} 68% {opacity: 1} 80% {opacity: 0} 100% {opacity: 0}}
]]></style>
<path d="M57.35,338.65c-6.79-4.24-8.13-9.23-9.49-16.16-3.08-15.73-1.9-31.5,0-47.24c2.437137-20.491062,6.837353-40.700575,13.14-60.35c6-18.86,17.18-25.39,33.62-25.68c17.039653-.524496,32.501675,9.917807,38.38,25.92c3,8.29,3,8.29,11.61,8.29h53c7.58,0,7.92-.25,10.33-7.31c7.15-21,31.53-32.52,52.33-24.67c8,3,13.89,8.32,17,16.46c7.82,20.31,12,41.48,14.9,63c2.13,16,3.27,32.12,1.06,48.27-1.11,8.08-2.29,13.36-9,18.71-3.18,2.56-11.21,2.21-14.83.71-3.692098-1.3936-7.098148-3.450786-10.05-6.07-12.73-10.6-21.81-24.12-29.66-38.52-.623344-1.518181-.850458-3.169921-.66-4.8.41-11.26-6.2-21.11-16.64-24.6-9.82-3.28-21.73-.23-26.38,9.58-4.14,8.76-9.28,8.44-15.93,8.44s-10.94.06-13.2-4.89c-5-11-16.91-16.59-28-13.36s-18.47,14.44-17.3,26.09c.256262,1.766803-.018728,3.569905-.79,5.18-11,18.28-22.56,33.9-42.7,43.21-3.94,1.46-8.62,1.02-10.74-.21Zm39.34-100c0-6.12-.07-11.73,0-17.33.05-3.68-.74-7.21-5-7.24-4.37,0-4.86,3.7-4.85,7.26c0,5.61,0,11.21,0,17.32-6.2,0-11.82,0-17.45,0-3.61,0-7.19.54-7.1,5c.08,4,3.46,4.73,6.91,4.7c5.77,0,11.55,0,17.64,0c0,6.34,0,12,0,17.62c0,3.47.76,6.89,4.71,6.95c4.2.06,5.18-3.36,5.13-7.08-.07-5.63,0-11.26,0-17.48c6.28,0,12.07,0,17.86,0c3.52,0,6.73-1.06,6.62-5-.1-3.59-3.09-4.69-6.49-4.64-5.75,0-11.55-.06-17.98-.06Zm87.37,16.21c3.35,0,5.94-1.7,5.88-4.64c0-3.3-2.23-4.89-5.64-5-9.3-.16-18.61-.29-27.92-.24-3.24,0-5.5,1.6-5.61,5s2.62,4.78,5.88,4.78c4.49.08,22.41.24,27.41.12Zm50.53-6.62c4.07,0,9.47.12,9.38-4.91-.07-3.86-3-4.8-9.11-4.81-3.88,0-8.54.57-8.66,4.92-.14,4.77,4.8,4.89,8.39,4.82Zm29-9c-5.38.18-8.56,1-8.47,4.86s4.32,4.23,8.73,4.23s8.92-.26,9-4.41-3.03-4.45-9.29-4.63Zm-14.47-11.38c6.6,0,9.54-.89,9.62-4.5.08-4-3.33-4.93-9.5-4.88-4,0-8.5.82-8.63,5c.01,3.81,4.39,4.43,8.48,4.43Zm.25,30.76c-4.13.12-8.79-.08-8.9,5.07-.07,3.58,3.07,4.83,9.12,4.74c4.91-.07,8.62-.51,8.67-5s-4.5-4.64-8.92-4.76Z" transform="translate(-42.86-.14)" fill="#fff"/><path d="M297,99c-1.569458,5.382051-4.593817,10.226562-8.74,14-3.83,3.38-9.69,6.08-14.72,6.2-26.27.6-52.56.28-79.45.28-.09-2-.27-56.1-.29-81.25c0-6.22-1.44-7.71-7.59-7.74q-16-.06-32,0c-6.14,0-7.69,1.56-7.7,7.71c0,25,0,78.88,0,81.51h-71.3c-19.85.06-30.62-7-32.21-22.71-.185016-1.661532-.185016-3.338468,0-5c2.63-13.51,10.11-21.87,24.31-23.73c1.73-.22,4-3.13,4.46-5.14c2.16-10,7.72-16.59,17.2-20.36c2-.78,4.31-3.24,4.56-5.17c2.42-18.62,21-26.06,35-21c1.82.65,5.8-.52,6.62-2c4.42-8.18,11.31-11.69,19.75-14.03c2.33401-.518951,4.748557-.563161,7.1-.13C170.35,2.54,177.28,6,181.62,14c2.07,3.78,5,3.34,8.26.71c14-11.32,35.64-5.31,40.86,11.56c1.62,5.27,3.93,5.9,9.12,3.31c5.677523-2.921336,12.220659-3.688609,18.42-2.16c14.87,3.56,22.75,18.29,17.77,33.47-1.27,3.87-1.49,7.25,2.76,8.62C289,72.77,294.4,80.09,297,90c.815504,2.944579.815504,6.055421,0,9Z" transform="translate(-42.86-.14)" fill="#fff"/><g id="e1XuGfBFjEN4_to" transform="translate(-42.86,-9.14)"><path id="e1XuGfBFjEN4" d="M170.23,188.57c-9-14.2-27.35-42.4-27.11-42.41c13.32-.35,13.12-.47,13.12-11.8q0-44,0-88v-5.79h28v6q0,44.73,0,89.45c0,9.42-.17,9.64,12.7,9.6.6-.03-17.64,28.58-26.71,42.95Z" transform="translate(0,0)" opacity="0" fill="#fff"/></g><path d="M149.43,287.18c.11,8.23-5.75,14.25-14,14.37-5.745309.080509-10.972898-3.309279-13.243352-8.587546s-1.136234-11.404596,2.873382-15.520181s10.104281-5.409189,15.439965-3.277162s8.860652,7.269434,8.930005,13.014889Z" transform="translate(-42.86-.14)" fill="#fff"/><path d="M219.25,287.32c0,8.27-5.84,14.17-14.09,14.18s-14.1-5.87-14.15-14.15s5.83-14.11,14.1-14.21c8.09-.14,14.12,5.95,14.14,14.18Z" transform="translate(-42.86-.14)" fill="#fff"/></svg>
